<svg width="701" height="467" viewBox="0 0 701 467" fill="none" xmlns="http://www.w3.org/2000/svg">
<path fill-rule="evenodd" clip-rule="evenodd" d="M59 58.6666H94V408.667H59V58.6666ZM607.333 58.6666H642.333V408.667H607.333V58.6666ZM572.333 58.6666H595.667V408.667H572.333V58.6666ZM514 58.6666H537.333V408.667H514V58.6666ZM467.333 58.6666H490.667V408.667H467.333V58.6666ZM350.667 58.6666H385.667V408.667H350.667V58.6666ZM549 58.6666H560.667V408.667H549V58.6666ZM175.667 58.6666H210.667V408.667H175.667V58.6666ZM222.333 58.6666H234V408.667H222.333V58.6666ZM315.667 58.6666H339V408.667H315.667V58.6666ZM292.333 58.6666H304V408.667H292.333V58.6666ZM257.333 58.6666H269V408.667H257.333V58.6666ZM105.667 58.6666H129V408.667H105.667V58.6666ZM140.667 58.6666H152.333V408.667H140.667V58.6666ZM432.333 58.6666H444V408.667H432.333V58.6666ZM397.333 58.6666H409V408.667H397.333V58.6666ZM0.666626 0.333313H105.667V23.6666H24V105.333H0.666626V0.333313ZM700.667 0.333313V105.333H677.333V23.6666H595.667V0.333313H700.667ZM0.666626 467V362H24V443.667H105.667V467H0.666626ZM700.667 467H595.667V443.667H677.333V362H700.667V467Z" fill="white"/>
</svg>
