<svg width="598" height="599" viewBox="0 0 598 599" fill="none" xmlns="http://www.w3.org/2000/svg">
<path fill-rule="evenodd" clip-rule="evenodd" d="M574.187 133.573C604.801 102.959 604.801 53.6773 574.187 23.068C544.317 -6.80133 494.291 -6.80133 464.427 23.8128L298.667 188.826L132.907 23.8128C103.043 -6.80188 53.016 -6.80188 23.1467 23.8128C-6.71733 54.4275 -7.468 103.709 23.1467 134.318L188.16 299.331L23.1467 465.091C-7.468 494.955 -7.468 544.982 23.1467 574.852C53.7613 605.466 103.043 605.466 133.652 574.852L298.665 409.838L464.425 575.598C495.04 606.213 544.321 606.213 574.931 575.598C605.545 544.983 605.545 495.702 574.931 465.093L409.171 299.333L574.187 133.573Z" fill="white"/>
</svg>
