<svg width="681" height="561" viewBox="0 0 681 561" fill="none" xmlns="http://www.w3.org/2000/svg">
<path d="M582.867 107.787C566.064 109.745 550.017 115.88 536.2 125.641C534.601 109.339 529.033 93.6773 519.987 80.0213C514.638 71.9692 503.773 69.7765 495.721 75.1203C487.664 80.4692 485.471 91.3336 490.82 99.3909C511.236 129.959 498.753 170.088 490.82 188.292V188.287C470.971 182.073 450.242 179.157 429.451 179.657C402.956 150.053 366.508 131.225 327.035 126.75C287.562 122.276 247.816 132.469 215.368 155.39C214.045 148.578 212.368 141.843 210.353 135.202H223.071C249.259 136.535 275.03 128.239 295.519 111.869C332.503 78.0354 332.036 23.3168 332.036 20.9834V20.9886C331.9 12.8741 326.202 5.91532 318.27 4.18599C310.687 2.43599 243.019 -11.2153 205.801 22.8527H205.806C192.175 36.4513 182.363 53.3886 177.337 71.9726C165.092 57.9673 149.467 47.3273 131.951 41.0553C127.503 39.0969 122.436 39.0865 117.973 41.0136C113.509 42.9459 110.051 46.6439 108.426 51.2272C106.801 55.8106 107.155 60.8627 109.405 65.1752C111.655 69.4878 115.598 72.6648 120.285 73.9512C170.567 91.8006 181.884 160.869 182.353 164.134V164.139C151.099 160.212 119.375 165.467 91.0559 179.264C62.7385 193.062 39.0452 214.806 22.8679 241.838C1.07586 277.89 -5.3508 321.176 5.01853 362.004C23.6852 436.202 129.617 560.338 232.165 560.338C242.118 560.359 252.029 559.145 261.681 556.723C270.426 554.473 278.635 550.51 285.832 545.057C291.264 541.145 297.973 539.437 304.613 540.27C313.566 541.541 322.681 541.067 331.447 538.869C335.405 537.755 339.295 536.427 343.113 534.906C349.045 538.208 355.16 541.171 361.431 543.77C384.436 553.286 409.103 558.125 433.999 558.005C490.717 558.125 544.499 532.791 580.532 488.989C616.563 445.186 631.048 387.53 619.996 331.895C608.944 276.265 573.523 228.526 523.48 201.822L525.813 195.874V195.869C544.355 213.124 568.225 223.536 593.48 225.39C595.615 225.505 597.756 225.505 599.896 225.39C646.563 220.838 676.313 180.005 677.594 178.724C682.354 172.146 681.969 163.161 676.662 157.021C672.229 150.839 629.646 103.005 582.859 107.786L582.867 107.787ZM229.947 49.4533C245.583 35.3386 275.916 35.3386 296.332 36.9741C294.051 55.8234 285.65 73.4008 272.415 87.0208C256.779 101.255 226.445 101.838 206.149 99.7396C208.384 80.8956 216.743 63.3129 229.947 49.6876V49.4533ZM264.947 516.12C261.467 518.74 257.504 520.641 253.28 521.724C168.233 543.536 55.88 420.339 38.9734 353.724C30.8848 321.781 35.8848 287.932 52.8533 259.688C67.6507 235.141 90.2747 216.287 117.088 206.152C143.895 196.017 173.333 195.189 200.672 203.808C207 205.918 213.974 204.137 218.521 199.256C234.828 182.194 255.609 170.063 278.491 164.256C315.673 154.86 355.111 162.746 385.824 185.726C377.881 187.773 370.089 190.34 362.491 193.423C357.59 195.408 352.689 197.741 348.021 200.189C324.032 188.356 296.605 185.46 270.672 192.022C261.297 194.408 255.631 203.939 258.016 213.314C260.396 222.689 269.932 228.356 279.308 225.976C290.068 223.236 301.292 222.882 312.204 224.924C271.636 259.569 247.589 309.736 245.99 363.07C244.391 416.393 265.386 467.914 303.808 504.924C289.906 504.304 276.214 508.419 264.953 516.59L264.947 516.12ZM577.147 309.613H577.152C592.955 347.384 592.955 389.911 577.152 427.681C561.439 465.416 531.407 495.379 493.641 511.015C455.876 526.651 413.453 526.681 375.668 511.098C327.96 491.447 293.236 449.243 283.147 398.639C273.058 348.041 288.944 295.743 325.469 259.306C362 222.863 414.329 207.103 464.909 217.306C515.488 227.509 557.612 262.333 577.155 310.087L577.147 309.613ZM596.631 189.796C578.548 191.546 557.079 176.494 543.433 164.244V164.249C554.97 152.426 570.037 144.687 586.365 142.197C604.448 140.333 625.917 155.379 639.563 167.749H639.568C628.068 179.702 613.005 187.604 596.636 190.265L596.631 189.796Z" fill="white"/>
<path d="M524.307 382.413C523.052 391.861 529.588 400.569 539.004 402.012H541.337C550.134 401.976 557.556 395.449 558.723 386.731C563.822 347.179 551.811 307.329 525.701 277.179C519.259 269.866 508.108 269.163 500.795 275.606C493.481 282.048 492.774 293.199 499.222 300.512C518.935 322.955 528.071 352.778 524.304 382.414L524.307 382.413Z" fill="white"/>
</svg>
