<svg width="747" height="747" viewBox="0 0 747 747" fill="none" xmlns="http://www.w3.org/2000/svg">
<path fill-rule="evenodd" clip-rule="evenodd" d="M373.667 0C167.48 0 0.333374 167.147 0.333374 373.333C0.333374 579.52 167.48 746.667 373.667 746.667C579.853 746.667 747 579.52 747 373.333C747 167.147 579.853 0 373.667 0ZM373.667 74.6667C208.72 74.6667 75 208.387 75 373.333C75 538.28 208.72 672 373.667 672C538.613 672 672.333 538.28 672.333 373.333C672.333 208.387 538.613 74.6667 373.667 74.6667Z" fill="white"/>
<path d="M336.333 224C336.333 203.38 353.047 186.667 373.667 186.667C394.287 186.667 411 203.38 411 224C411 244.62 394.287 261.333 373.667 261.333C353.047 261.333 336.333 244.62 336.333 224Z" fill="white"/>
<path d="M336.333 336C336.333 315.38 353.047 298.667 373.667 298.667C394.287 298.667 411 315.38 411 336V522.667C411 543.287 394.287 560 373.667 560C353.047 560 336.333 543.287 336.333 522.667V336Z" fill="white"/>
</svg>
