<svg width="598" height="463" viewBox="0 0 598 463" fill="none" xmlns="http://www.w3.org/2000/svg">
<path fill-rule="evenodd" clip-rule="evenodd" d="M582.399 462.932H14.932C6.7184 462.932 0 456.213 0 448V388.265C0 380.052 6.7188 373.333 14.932 373.333H582.399C590.612 373.333 597.331 380.052 597.331 388.265V448C597.331 456.208 590.612 462.932 582.399 462.932ZM582.399 276.265H14.932C6.7184 276.265 0 269.547 0 261.333V201.599C0 193.385 6.7188 186.667 14.932 186.667H582.399C590.612 186.667 597.331 193.385 597.331 201.599V261.333C597.331 269.542 590.612 276.265 582.399 276.265ZM582.399 89.5987H14.932C6.7184 89.5987 0 82.8799 0 74.6667V14.932C0 6.7184 6.7188 0 14.932 0H582.399C590.612 0 597.331 6.7188 597.331 14.932V74.6667C597.331 82.8749 590.612 89.5987 582.399 89.5987Z" fill="white"/>
</svg>
