<svg width="411" height="673" viewBox="0 0 411 673" fill="none" xmlns="http://www.w3.org/2000/svg">
<path d="M89.9333 672.333H320.653C369.935 672.333 410.252 632.016 410.252 582.735L410.257 89.9347C410.257 40.6533 369.94 0.335999 320.659 0.335999H89.9385C40.6572 0.335999 0.339844 40.6533 0.339844 89.9347V582.735C0.339844 632.016 40.6572 672.333 89.9385 672.333H89.9333ZM89.9333 642.469C57.0786 642.469 30.1986 615.589 30.1986 582.735V505.079H380.385V582.735C381.135 615.589 354.255 642.469 321.401 642.469H89.9333ZM30.2 475.216V139.963H380.387V475.216H30.2ZM89.9346 30.2027H320.655C353.509 30.2027 380.389 57.0827 380.389 89.9373V110.099H30.2026V89.9373C30.2026 57.0827 57.0826 30.2027 89.9373 30.2027H89.9346Z" fill="white"/>
<path d="M205.667 529.72C181.027 529.72 160.864 549.881 160.864 574.523C160.864 599.164 181.025 619.325 205.667 619.325C230.308 619.325 250.469 599.164 250.469 574.523C250.469 549.881 230.308 529.72 205.667 529.72ZM205.667 589.455C197.453 589.455 190.735 582.736 190.735 574.523C190.735 566.31 197.453 559.591 205.667 559.591C213.88 559.591 220.599 566.31 220.599 574.523C220.599 582.736 213.88 589.455 205.667 589.455Z" fill="white"/>
</svg>
